# xmcd
#
# Track frame offsets:
# 150
# 26895
# 43946
# 58499
# 70500
# 86529
# 105622
# 124640
# 143206
# 161196
# 177329
# 190266
# 202690
# 221291
# 242762
# 258381
# 273887
# 289022
# 305364
#
# Disc length: 4291 seconds
#
#
# Revision: 0
# Processed by: cddbd v1.5.2PL0 Copyright (c) Steve Scherf et al.
# Submitted via: FreeRIP 2.96 
#
DISCID=1710c113
DTITLE=César Menotti and Mariano - César Menotti and Fabiano -  Vol. 2
DYEAR=2007
DGENRE=Sertanejo
TTITLE0=PotPourri-A coisa tá feia. Pagode em Brasília-As águas do São Francisco
TTITLE1=Fica Comigo
TTITLE2=Pijama em Lua de Mel
TTITLE3=A Última Cerveja
TTITLE4=A Procura de uma Flor
TTITLE5=Último Adeus
TTITLE6=25 de Dezembro
TTITLE7=Luz da Minha Vida
TTITLE8=Presente da Vida
TTITLE9=Herói sem Medalha
TTITLE10=Caminhos de Minha Infância
TTITLE11=Como Reconquistar o Seu Amor
TTITLE12=Seu Filho Voltou
TTITLE13=Como eu Chorei
TTITLE14=Porta do Mundo
TTITLE15=Boi Soberano
TTITLE16=Jeitão de Caboclo
TTITLE17=Eu Bebi por Ela
TTITLE18=Vou Doar Meu Coração
EXTD=
EXTT0=
EXTT1=
EXTT2=
EXTT3=
EXTT4=
EXTT5=
EXTT6=
EXTT7=
EXTT8=
EXTT9=
EXTT10=
EXTT11=
EXTT12=
EXTT13=
EXTT14=
EXTT15=
EXTT16=
EXTT17=
EXTT18=
PLAYORDER=
